#!OML:ASF F:\VICON\USERDATA\INSTALL\rory3\rory3.ASF
:FULLY-SPECIFIED
:DEGREES
1
root 17.146 17.8391 -14.069 0.145598 -52.8013 3.22837
lowerback 1.41628 1.70173 -1.98311
upperback -0.40423 2.22464 -0.470729
thorax -1.26436 1.12424 0.571679
lowerneck -10.0739 -2.65 -5.46239
upperneck 17.8578 -3.11675 1.8053
head 7.25141 -1.73967 1.19847
rclavicle -1.43156e-014 6.70898e-015
rhumerus -32.3821 -6.28807 -81.6932
rradius 22.1968
rwrist 4.48237
rhand -11.0677 16.8044
rfingers 7.12502
rthumb 14.9552 -12.6356
lclavicle -1.43156e-014 6.70898e-015
lhumerus -33.5659 -6.18627 87.0288
lradius 26.3171
lwrist 5.62517
lhand -3.43399 26.7997
lfingers 7.12502
lthumb 22.2974 55.5332
rfemur -12.6227 1.45989 20.9429
rtibia 29.9504
rfoot -20.4994 -16.7734
rtoes -7.59881
lfemur -10.6404 -2.92287 -26.7907
ltibia 25.4859
lfoot -18.6926 14.5118
ltoes -18.0029
2
root 17.1465 17.8385 -14.0663 0.11741 -52.7908 3.23231
lowerback 1.48869 1.6978 -2.00144
upperback -0.3999 2.21722 -0.470857
thorax -1.30104 1.1209 0.579703
lowerneck -10.0539 -2.64396 -5.46047
upperneck 17.8618 -3.11792 1.84559
head 7.24966 -1.73681 1.2114
rclavicle -1.03303e-013 3.8763e-015
rhumerus -32.4006 -6.27068 -81.6958
rradius 22.1802
rwrist 4.44955
rhand -11.0097 16.8125
rfingers 7.12502
rthumb 15.0112 -12.6233
lclavicle -1.03303e-013 3.8763e-015
lhumerus -33.5942 -6.12087 86.9788
lradius 26.3159
lwrist 5.55743
lhand -3.50166 26.8755
lfingers 7.12502
lthumb 22.2324 55.6168
rfemur -12.5922 1.47077 20.9333
rtibia 29.9459
rfoot -20.4546 -16.8124
rtoes -7.68067
lfemur -10.6038 -2.93247 -26.8013
ltibia 25.4716
lfoot -18.6955 14.4903
ltoes -17.8353
3
root 17.1459 17.8379 -14.0625 0.180418 -52.7705 3.18321
lowerback 1.48273 1.68028 -1.99367
upperback -0.406032 2.19429 -0.457575
thorax -1.30363 1.10953 0.589668
lowerneck -9.95362 -2.61855 -5.41489
upperneck 17.7883 -3.091 1.81834
head 7.20563 -1.72319 1.19888
rclavicle 9.30033e-014 6.75868e-015
rhumerus -32.4112 -6.22811 -81.6975
rradius 22.1463
rwrist 4.42457
rhand -10.9921 16.7466
rfingers 7.12502
rthumb 15.0281 -12.688
lclavicle 9.30033e-014 6.75868e-015
lhumerus -33.6463 -6.02119 86.9209
lradius 26.3492
lwrist 5.4471
lhand -3.49636 27.0089
lfingers 7.12502
lthumb 22.2375 55.7496
rfemur -12.5754 1.44501 20.9558
rtibia 29.8888
rfoot -20.4646 -16.7943
rtoes -7.70626
lfemur -10.6739 -2.96063 -26.7779
ltibia 25.5796
lfoot -18.7529 14.5019
ltoes -17.8529
4
root 17.1494 17.8389 -14.0646 0.403076 -52.7251 2.98082
lowerback 1.52989 1.68451 -1.88773
upperback -0.420719 2.20102 -0.440482
thorax -1.34192 1.11255 0.546001
lowerneck -10.0039 -2.63778 -5.34595
upperneck 17.8064 -3.11997 1.78431
head 7.21978 -1.73518 1.17311
rclavicle -1.87292e-015 1.83876e-015
rhumerus -32.3499 -6.4579 -81.6263
rradius 22.0371
rwrist 4.59352
rhand -10.9807 16.6577
rfingers 7.12502
rthumb 15.0391 -12.7761
lclavicle -1.87292e-015 1.83876e-015
lhumerus -33.6569 -6.04809 86.8957
lradius 26.3982
lwrist 5.44323
lhand -3.52954 27.1173
lfingers 7.12502
lthumb 22.2057 55.8617
rfemur -12.621 1.61102 21.1035
rtibia 29.8305
rfoot -20.5375 -16.9035
rtoes -7.19525
lfemur -10.8318 -2.9399 -26.6273
ltibia 25.6882
lfoot -18.7694 14.4171
ltoes -17.7663
5
root 17.1571 17.8404 -14.0705 0.710373 -52.7245 2.62919
lowerback 1.67261 1.72006 -1.65745
upperback -0.451606 2.25012 -0.419707
thorax -1.44664 1.13619 0.431931
lowerneck -10.059 -2.65744 -5.30733
upperneck 17.8865 -3.15595 1.80571
head 7.2565 -1.74851 1.16949
rclavicle -8.1084e-014 1.54058e-015
rhumerus -32.3385 -6.6205 -81.6027
rradius 21.9771
rwrist 4.6567
rhand -10.9846 16.5203
rfingers 7.12502
rthumb 15.0354 -12.9138
lclavicle -8.1084e-014 1.54058e-015
lhumerus -33.6624 -6.19829 86.8992
lradius 26.4435
lwrist 5.51774
lhand -3.45402 27.2566
lfingers 7.12502
lthumb 22.2782 55.9925
rfemur -12.6661 1.84811 21.3689
rtibia 29.7687
rfoot -20.4711 -17.1424
rtoes -7.14114
lfemur -10.9847 -2.92517 -26.3705
ltibia 25.7998
lfoot -18.8208 14.357
ltoes -17.8033
